<svg width="14" height="13" viewBox="0 0 14 13" fill="none" xmlns="http://www.w3.org/2000/svg">
<path d="M11.935 0.746094H2.0725L0.25 5.99609V12.7461H2.5V11.2461H11.5V12.7461H13.75V5.99609L11.935 0.746094ZM2.875 8.99609C2.2525 8.99609 1.75 8.49359 1.75 7.87109C1.75 7.24859 2.2525 6.74609 2.875 6.74609C3.4975 6.74609 4 7.24859 4 7.87109C4 8.49359 3.4975 8.99609 2.875 8.99609ZM11.125 8.99609C10.5025 8.99609 10 8.49359 10 7.87109C10 7.24859 10.5025 6.74609 11.125 6.74609C11.7475 6.74609 12.25 7.24859 12.25 7.87109C12.25 8.49359 11.7475 8.99609 11.125 8.99609ZM1.75 5.24609L2.875 1.87109H11.125L12.25 5.24609H1.75Z" fill="#009469"/>
</svg>
