<svg width="24" height="24" viewBox="0 0 24 24" fill="none" xmlns="http://www.w3.org/2000/svg">
<g clip-path="url(#clip0_4286_8341)">
<path d="M13.5 5.49512C14.6 5.49512 15.5 4.59512 15.5 3.49512C15.5 2.39512 14.6 1.49512 13.5 1.49512C12.4 1.49512 11.5 2.39512 11.5 3.49512C11.5 4.59512 12.4 5.49512 13.5 5.49512ZM9.8 8.89512L7 22.9951H9.1L10.9 14.9951L13 16.9951V22.9951H15V15.4951L12.9 13.4951L13.5 10.4951C14.8 11.9951 16.8 12.9951 19 12.9951V10.9951C17.1 10.9951 15.5 9.99512 14.7 8.59512L13.7 6.99512C13.14 6.10512 12.02 5.74512 11.05 6.15512L6 8.29512V12.9951H8V9.59512L9.8 8.89512Z" fill="#009469"/>
</g>
<defs>
<clipPath id="clip0_4286_8341">
<rect width="24" height="24" fill="white" transform="translate(0 -0.00488281)"/>
</clipPath>
</defs>
</svg>
