<svg width="24" height="24" viewBox="0 0 24 24" fill="none" xmlns="http://www.w3.org/2000/svg">
<g clip-path="url(#clip0_4286_8347)">
<path d="M4 15.9951C4 16.8751 4.39 17.6651 5 18.2151V20.9951H8V18.9951H16V20.9951H19V18.2151C19.61 17.6651 20 16.8751 20 15.9951V5.99512C20 2.49512 16.42 1.99512 12 1.99512C7.58 1.99512 4 2.49512 4 5.99512V15.9951ZM7.5 16.9951C6.67 16.9951 6 16.3251 6 15.4951C6 14.6651 6.67 13.9951 7.5 13.9951C8.33 13.9951 9 14.6651 9 15.4951C9 16.3251 8.33 16.9951 7.5 16.9951ZM16.5 16.9951C15.67 16.9951 15 16.3251 15 15.4951C15 14.6651 15.67 13.9951 16.5 13.9951C17.33 13.9951 18 14.6651 18 15.4951C18 16.3251 17.33 16.9951 16.5 16.9951ZM18 10.9951H6V5.99512H18V10.9951Z" fill="#009469"/>
</g>
<defs>
<clipPath id="clip0_4286_8347">
<rect width="24" height="24" fill="white" transform="translate(0 -0.00488281)"/>
</clipPath>
</defs>
</svg>
