<svg width="16" height="16" viewBox="0 0 16 16" fill="none" xmlns="http://www.w3.org/2000/svg">
<path d="M5.51714 12.4588C5.51714 12.5193 5.44758 12.5677 5.35988 12.5677C5.26008 12.5768 5.19052 12.5284 5.19052 12.4588C5.19052 12.3983 5.26008 12.35 5.34778 12.35C5.43851 12.3409 5.51714 12.3893 5.51714 12.4588ZM4.57661 12.3227C4.55544 12.3832 4.61593 12.4528 4.70665 12.4709C4.78528 12.5012 4.87601 12.4709 4.89415 12.4104C4.9123 12.35 4.85484 12.2804 4.76411 12.2532C4.68548 12.232 4.59778 12.2623 4.57661 12.3227ZM5.91331 12.2713C5.8256 12.2925 5.76512 12.35 5.77419 12.4195C5.78327 12.48 5.8619 12.5193 5.95262 12.4981C6.04032 12.477 6.10081 12.4195 6.09173 12.359C6.08266 12.3016 6.00101 12.2623 5.91331 12.2713ZM7.90323 0.682617C3.70867 0.682617 0.5 3.86709 0.5 8.06165C0.5 11.4155 2.61089 14.2854 5.62601 15.2955C6.0131 15.3651 6.14919 15.1262 6.14919 14.9296C6.14919 14.7421 6.14012 13.7078 6.14012 13.0727C6.14012 13.0727 4.02319 13.5264 3.57863 12.1715C3.57863 12.1715 3.23387 11.2915 2.7379 11.0647C2.7379 11.0647 2.04536 10.5899 2.78629 10.5989C2.78629 10.5989 3.53931 10.6594 3.95363 11.3792C4.61593 12.5465 5.72581 12.2108 6.15827 12.0112C6.22782 11.5274 6.4244 11.1917 6.64214 10.9921C4.95161 10.8046 3.24597 10.5596 3.24597 7.65036C3.24597 6.81871 3.47581 6.40137 3.95968 5.86911C3.88105 5.67254 3.62399 4.86205 4.03831 3.81568C4.67036 3.61911 6.125 4.63221 6.125 4.63221C6.72984 4.46286 7.38004 4.37516 8.02419 4.37516C8.66835 4.37516 9.31855 4.46286 9.92339 4.63221C9.92339 4.63221 11.378 3.61608 12.0101 3.81568C12.4244 4.86508 12.1673 5.67254 12.0887 5.86911C12.5726 6.40439 12.869 6.82173 12.869 7.65036C12.869 10.5687 11.0877 10.8016 9.39718 10.9921C9.6754 11.231 9.91129 11.6846 9.91129 12.3953C9.91129 13.4145 9.90222 14.6756 9.90222 14.9235C9.90222 15.1201 10.0413 15.359 10.4254 15.2895C13.4496 14.2854 15.5 11.4155 15.5 8.06165C15.5 3.86709 12.0978 0.682617 7.90323 0.682617ZM3.43952 11.1131C3.4002 11.1433 3.40927 11.2129 3.46069 11.2703C3.50907 11.3187 3.57863 11.3399 3.61794 11.3006C3.65726 11.2703 3.64819 11.2008 3.59677 11.1433C3.54839 11.0949 3.47883 11.0737 3.43952 11.1131ZM3.1129 10.8681C3.09173 10.9074 3.12198 10.9558 3.18246 10.986C3.23085 11.0163 3.29133 11.0072 3.3125 10.9649C3.33367 10.9256 3.30343 10.8772 3.24294 10.8469C3.18246 10.8288 3.13407 10.8379 3.1129 10.8681ZM4.09274 11.9447C4.04435 11.984 4.0625 12.0748 4.13206 12.1322C4.20161 12.2018 4.28931 12.2108 4.32863 12.1625C4.36794 12.1231 4.3498 12.0324 4.28931 11.975C4.22278 11.9054 4.13206 11.8963 4.09274 11.9447ZM3.74798 11.5002C3.6996 11.5304 3.6996 11.609 3.74798 11.6786C3.79637 11.7481 3.87802 11.7784 3.91734 11.7481C3.96573 11.7088 3.96573 11.6302 3.91734 11.5606C3.875 11.4911 3.79637 11.4608 3.74798 11.5002Z" fill="#009469"/>
</svg>
