<svg width="20" height="20" viewBox="0 0 20 20" fill="none" xmlns="http://www.w3.org/2000/svg">
<path d="M4.47679 19.9947H0.330357V6.64199H4.47679V19.9947ZM2.40134 4.82056C1.07545 4.82056 0 3.72235 0 2.39646C9.49017e-09 1.75958 0.252998 1.14879 0.703336 0.698453C1.15367 0.248115 1.76446 -0.00488281 2.40134 -0.00488281C3.03821 -0.00488281 3.649 0.248115 4.09934 0.698453C4.54968 1.14879 4.80268 1.75958 4.80268 2.39646C4.80268 3.72235 3.72679 4.82056 2.40134 4.82056ZM19.9955 19.9947H15.858V13.4947C15.858 11.9456 15.8268 9.95896 13.7022 9.95896C11.5464 9.95896 11.2161 11.642 11.2161 13.3831V19.9947H7.07411V6.64199H11.0509V8.46342H11.1089C11.6625 7.41431 13.0147 6.30717 15.0321 6.30717C19.2286 6.30717 20 9.07056 20 12.6599V19.9947H19.9955Z" fill="#009469"/>
</svg>
