<svg width="24" height="24" viewBox="0 0 24 24" fill="none" xmlns="http://www.w3.org/2000/svg">
<g clip-path="url(#clip0_4286_8338)">
<path d="M9 14.9951C10.6575 14.9951 12 13.6526 12 11.9951C12 10.3376 10.6575 8.99512 9 8.99512C7.3425 8.99512 6 10.3376 6 11.9951C6 13.6526 7.3425 14.9951 9 14.9951ZM9 16.4951C6.9975 16.4951 3 17.5001 3 19.4951V20.9951H15V19.4951C15 17.5001 11.0025 16.4951 9 16.4951Z" fill="#009469"/>
<path d="M21 6.10623H19.6875V5.59956C20.44 5.39956 21 4.71067 21 3.88401H19.6875V2.99512H15.3125V3.88401H14C14 4.71067 14.56 5.39956 15.3125 5.59956V6.10623H14C14 6.93289 14.56 7.62178 15.3125 7.82178V8.32845H14C14 9.15512 14.56 9.84401 15.3125 10.044V10.9951H19.6875V10.044C20.44 9.84401 21 9.15512 21 8.32845H19.6875V7.82178C20.44 7.62178 21 6.93289 21 6.10623ZM17.5 10.1062C17.0144 10.1062 16.625 9.70623 16.625 9.21734C16.625 8.72845 17.0144 8.32845 17.5 8.32845C17.9813 8.32845 18.375 8.72845 18.375 9.21734C18.375 9.70623 17.9856 10.1062 17.5 10.1062ZM17.5 7.88401C17.0144 7.88401 16.625 7.48401 16.625 6.99512C16.625 6.50623 17.0144 6.10623 17.5 6.10623C17.9813 6.10623 18.375 6.50623 18.375 6.99512C18.375 7.48401 17.9856 7.88401 17.5 7.88401ZM17.5 5.66178C17.0144 5.66178 16.625 5.26178 16.625 4.77289C16.625 4.27956 17.0144 3.88401 17.5 3.88401C17.9813 3.88401 18.375 4.27956 18.375 4.77289C18.375 5.26178 17.9856 5.66178 17.5 5.66178Z" fill="#009469"/>
</g>
<defs>
<clipPath id="clip0_4286_8338">
<rect width="24" height="24" fill="white" transform="translate(0 -0.00488281)"/>
</clipPath>
</defs>
</svg>
