<svg width="24" height="24" viewBox="0 0 24 24" fill="none" xmlns="http://www.w3.org/2000/svg">
<g clip-path="url(#clip0_4286_8344)">
<path d="M20 9.99512H17V8.85512C18.72 8.40512 20 6.85512 20 4.99512H17V2.99512H7V4.99512H4C4 6.85512 5.28 8.40512 7 8.85512V9.99512H4C4 11.8551 5.28 13.4051 7 13.8551V14.9951H4C4 16.8551 5.28 18.4051 7 18.8551V20.9951H17V18.8551C18.72 18.4051 20 16.8551 20 14.9951H17V13.8551C18.72 13.4051 20 11.8551 20 9.99512ZM12 18.9951C10.89 18.9951 10 18.0951 10 16.9951C10 15.8951 10.89 14.9951 12 14.9951C13.1 14.9951 14 15.8951 14 16.9951C14 18.0951 13.11 18.9951 12 18.9951ZM12 13.9951C10.89 13.9951 10 13.0951 10 11.9951C10 10.8951 10.89 9.99512 12 9.99512C13.1 9.99512 14 10.8951 14 11.9951C14 13.0951 13.11 13.9951 12 13.9951ZM12 8.99512C10.89 8.99512 10 8.09512 10 6.99512C10 5.88512 10.89 4.99512 12 4.99512C13.1 4.99512 14 5.88512 14 6.99512C14 8.09512 13.11 8.99512 12 8.99512Z" fill="#009469"/>
</g>
<defs>
<clipPath id="clip0_4286_8344">
<rect width="24" height="24" fill="white" transform="translate(0 -0.00488281)"/>
</clipPath>
</defs>
</svg>
