<svg width="20" height="18" viewBox="0 0 20 18" fill="none" xmlns="http://www.w3.org/2000/svg">
<path d="M17.9442 4.92127C17.9569 5.09892 17.9569 5.27662 17.9569 5.45428C17.9569 10.873 13.8326 17.1167 6.29444 17.1167C3.97209 17.1167 1.81473 16.4441 0 15.2767C0.329962 15.3147 0.64719 15.3274 0.989848 15.3274C2.90607 15.3274 4.67006 14.6802 6.0787 13.5761C4.27666 13.5381 2.7665 12.3579 2.24618 10.7335C2.50001 10.7715 2.7538 10.7969 3.02032 10.7969C3.38833 10.7969 3.75638 10.7461 4.099 10.6573C2.22083 10.2766 0.812152 8.62687 0.812152 6.63448V6.58373C1.35782 6.8883 1.99239 7.07866 2.66493 7.10401C1.56087 6.36795 0.837542 5.11162 0.837542 3.69028C0.837542 2.92888 1.04055 2.2309 1.3959 1.62176C3.41369 4.10908 6.4467 5.73342 9.8477 5.91111C9.78426 5.60654 9.74617 5.28931 9.74617 4.97205C9.74617 2.71313 11.5736 0.873047 13.8452 0.873047C15.0254 0.873047 16.0914 1.36797 16.8401 2.16747C17.7665 1.98981 18.6548 1.64715 19.4416 1.17762C19.137 2.12942 18.4898 2.92891 17.6396 3.43649C18.4645 3.34771 19.264 3.11923 20 2.802C19.4417 3.61415 18.7437 4.33747 17.9442 4.92127Z" fill="#009469"/>
</svg>
